<!--?xml version="1.0" encoding="us-ascii" standalone="no"?--><svg xmlns="http://www.w3.org/2000/svg" xmlns:xlink="http://www.w3.org/1999/xlink" contentstyletype="text/css" height="532px" preserveAspectRatio="none" style="width:1988px;height:532px;background:#FFFFFF;" version="1.1" viewBox="0 0 1988 532" width="1988px" zoomAndPan="magnify"><defs></defs><g><!--class IPaymentAuthorization--><g id="elem_IPaymentAuthorization"><rect codeline="1" fill="#F1F1F1" height="64.2969" id="IPaymentAuthorization" rx="2.5" ry="2.5" style="stroke:#181818;stroke-width:0.5;" width="316" x="358" y="312.63"></rect><ellipse cx="434.75" cy="328.63" fill="#ADD1B2" rx="11" ry="11" style="stroke:#181818;stroke-width:1.0;"></ellipse><path d="M437.7188,334.2706 Q437.1406,334.5675 436.5,334.7081 Q435.8594,334.8644 435.1563,334.8644 Q432.6563,334.8644 431.3281,333.2238 Q430.0156,331.5675 430.0156,328.4425 Q430.0156,325.3175 431.3281,323.6613 Q432.6563,322.005 435.1563,322.005 Q435.8594,322.005 436.5,322.1613 Q437.1563,322.3175 437.7188,322.6144 L437.7188,325.3331 Q437.0938,324.755 436.5,324.4894 Q435.9063,324.2081 435.2813,324.2081 Q433.9375,324.2081 433.25,325.2863 Q432.5625,326.3488 432.5625,328.4425 Q432.5625,330.5363 433.25,331.6144 Q433.9375,332.6769 435.2813,332.6769 Q435.9063,332.6769 436.5,332.4113 Q437.0938,332.13 437.7188,331.5519 L437.7188,334.2706 Z " fill="#000000"></path><text fill="#000000" font-family="sans-serif" font-size="14" lengthAdjust="spacing" textLength="154" x="455.25" y="333.4767">IPaymentAuthorization</text><line style="stroke:#181818;stroke-width:0.5;" x1="359" x2="673" y1="344.63" y2="344.63"></line><line style="stroke:#181818;stroke-width:0.5;" x1="359" x2="673" y1="352.63" y2="352.63"></line><ellipse cx="369" cy="366.2784" fill="#84BE84" rx="3" ry="3" style="stroke:#038048;stroke-width:1.0;"></ellipse><text fill="#000000" font-family="sans-serif" font-size="14" lengthAdjust="spacing" textLength="290" x="378" y="369.6251">AuthorizePayment(amount: decimal): bool</text></g><!--class IPaymentTransfer--><g id="elem_IPaymentTransfer"><rect codeline="5" fill="#F1F1F1" height="64.2969" id="IPaymentTransfer" rx="2.5" ry="2.5" style="stroke:#181818;stroke-width:0.5;" width="247" x="850.5" y="312.63"></rect><ellipse cx="909.75" cy="328.63" fill="#ADD1B2" rx="11" ry="11" style="stroke:#181818;stroke-width:1.0;"></ellipse><path d="M912.7188,334.2706 Q912.1406,334.5675 911.5,334.7081 Q910.8594,334.8644 910.1563,334.8644 Q907.6563,334.8644 906.3281,333.2238 Q905.0156,331.5675 905.0156,328.4425 Q905.0156,325.3175 906.3281,323.6613 Q907.6563,322.005 910.1563,322.005 Q910.8594,322.005 911.5,322.1613 Q912.1563,322.3175 912.7188,322.6144 L912.7188,325.3331 Q912.0938,324.755 911.5,324.4894 Q910.9063,324.2081 910.2813,324.2081 Q908.9375,324.2081 908.25,325.2863 Q907.5625,326.3488 907.5625,328.4425 Q907.5625,330.5363 908.25,331.6144 Q908.9375,332.6769 910.2813,332.6769 Q910.9063,332.6769 911.5,332.4113 Q912.0938,332.13 912.7188,331.5519 L912.7188,334.2706 Z " fill="#000000"></path><text fill="#000000" font-family="sans-serif" font-size="14" lengthAdjust="spacing" textLength="120" x="930.25" y="333.4767">IPaymentTransfer</text><line style="stroke:#181818;stroke-width:0.5;" x1="851.5" x2="1096.5" y1="344.63" y2="344.63"></line><line style="stroke:#181818;stroke-width:0.5;" x1="851.5" x2="1096.5" y1="352.63" y2="352.63"></line><ellipse cx="861.5" cy="366.2784" fill="#84BE84" rx="3" ry="3" style="stroke:#038048;stroke-width:1.0;"></ellipse><text fill="#000000" font-family="sans-serif" font-size="14" lengthAdjust="spacing" textLength="221" x="870.5" y="369.6251">Transfer(amount: decimal): bool</text></g><!--class CreditCardAuthorization--><g id="elem_CreditCardAuthorization"><rect codeline="9" fill="#F1F1F1" height="64.2969" id="CreditCardAuthorization" rx="2.5" ry="2.5" style="stroke:#181818;stroke-width:0.5;" width="316" x="7" y="453.22"></rect><ellipse cx="78.75" cy="469.22" fill="#ADD1B2" rx="11" ry="11" style="stroke:#181818;stroke-width:1.0;"></ellipse><path d="M81.7188,474.8606 Q81.1406,475.1575 80.5,475.2981 Q79.8594,475.4544 79.1563,475.4544 Q76.6563,475.4544 75.3281,473.8137 Q74.0156,472.1575 74.0156,469.0325 Q74.0156,465.9075 75.3281,464.2512 Q76.6563,462.595 79.1563,462.595 Q79.8594,462.595 80.5,462.7512 Q81.1563,462.9075 81.7188,463.2044 L81.7188,465.9231 Q81.0938,465.345 80.5,465.0794 Q79.9063,464.7981 79.2813,464.7981 Q77.9375,464.7981 77.25,465.8762 Q76.5625,466.9387 76.5625,469.0325 Q76.5625,471.1262 77.25,472.2044 Q77.9375,473.2669 79.2813,473.2669 Q79.9063,473.2669 80.5,473.0012 Q81.0938,472.72 81.7188,472.1419 L81.7188,474.8606 Z " fill="#000000"></path><text fill="#000000" font-family="sans-serif" font-size="14" lengthAdjust="spacing" textLength="164" x="99.25" y="474.0667">CreditCardAuthorization</text><line style="stroke:#181818;stroke-width:0.5;" x1="8" x2="322" y1="485.22" y2="485.22"></line><line style="stroke:#181818;stroke-width:0.5;" x1="8" x2="322" y1="493.22" y2="493.22"></line><ellipse cx="18" cy="506.8684" fill="#84BE84" rx="3" ry="3" style="stroke:#038048;stroke-width:1.0;"></ellipse><text fill="#000000" font-family="sans-serif" font-size="14" lengthAdjust="spacing" textLength="290" x="27" y="510.2151">AuthorizePayment(amount: decimal): bool</text></g><!--class CreditCardTransfer--><g id="elem_CreditCardTransfer"><rect codeline="13" fill="#F1F1F1" height="64.2969" id="CreditCardTransfer" rx="2.5" ry="2.5" style="stroke:#181818;stroke-width:0.5;" width="247" x="709.5" y="453.22"></rect><ellipse cx="763.75" cy="469.22" fill="#ADD1B2" rx="11" ry="11" style="stroke:#181818;stroke-width:1.0;"></ellipse><path d="M766.7188,474.8606 Q766.1406,475.1575 765.5,475.2981 Q764.8594,475.4544 764.1563,475.4544 Q761.6563,475.4544 760.3281,473.8137 Q759.0156,472.1575 759.0156,469.0325 Q759.0156,465.9075 760.3281,464.2512 Q761.6563,462.595 764.1563,462.595 Q764.8594,462.595 765.5,462.7512 Q766.1563,462.9075 766.7188,463.2044 L766.7188,465.9231 Q766.0938,465.345 765.5,465.0794 Q764.9063,464.7981 764.2813,464.7981 Q762.9375,464.7981 762.25,465.8762 Q761.5625,466.9387 761.5625,469.0325 Q761.5625,471.1262 762.25,472.2044 Q762.9375,473.2669 764.2813,473.2669 Q764.9063,473.2669 765.5,473.0012 Q766.0938,472.72 766.7188,472.1419 L766.7188,474.8606 Z " fill="#000000"></path><text fill="#000000" font-family="sans-serif" font-size="14" lengthAdjust="spacing" textLength="130" x="784.25" y="474.0667">CreditCardTransfer</text><line style="stroke:#181818;stroke-width:0.5;" x1="710.5" x2="955.5" y1="485.22" y2="485.22"></line><line style="stroke:#181818;stroke-width:0.5;" x1="710.5" x2="955.5" y1="493.22" y2="493.22"></line><ellipse cx="720.5" cy="506.8684" fill="#84BE84" rx="3" ry="3" style="stroke:#038048;stroke-width:1.0;"></ellipse><text fill="#000000" font-family="sans-serif" font-size="14" lengthAdjust="spacing" textLength="221" x="729.5" y="510.2151">Transfer(amount: decimal): bool</text></g><!--class PayPalAuthorization--><g id="elem_PayPalAuthorization"><rect codeline="17" fill="#F1F1F1" height="64.2969" id="PayPalAuthorization" rx="2.5" ry="2.5" style="stroke:#181818;stroke-width:0.5;" width="316" x="358" y="453.22"></rect><ellipse cx="444.25" cy="469.22" fill="#ADD1B2" rx="11" ry="11" style="stroke:#181818;stroke-width:1.0;"></ellipse><path d="M447.2188,474.8606 Q446.6406,475.1575 446,475.2981 Q445.3594,475.4544 444.6563,475.4544 Q442.1563,475.4544 440.8281,473.8137 Q439.5156,472.1575 439.5156,469.0325 Q439.5156,465.9075 440.8281,464.2512 Q442.1563,462.595 444.6563,462.595 Q445.3594,462.595 446,462.7512 Q446.6563,462.9075 447.2188,463.2044 L447.2188,465.9231 Q446.5938,465.345 446,465.0794 Q445.4063,464.7981 444.7813,464.7981 Q443.4375,464.7981 442.75,465.8762 Q442.0625,466.9387 442.0625,469.0325 Q442.0625,471.1262 442.75,472.2044 Q443.4375,473.2669 444.7813,473.2669 Q445.4063,473.2669 446,473.0012 Q446.5938,472.72 447.2188,472.1419 L447.2188,474.8606 Z " fill="#000000"></path><text fill="#000000" font-family="sans-serif" font-size="14" lengthAdjust="spacing" textLength="135" x="464.75" y="474.0667">PayPalAuthorization</text><line style="stroke:#181818;stroke-width:0.5;" x1="359" x2="673" y1="485.22" y2="485.22"></line><line style="stroke:#181818;stroke-width:0.5;" x1="359" x2="673" y1="493.22" y2="493.22"></line><ellipse cx="369" cy="506.8684" fill="#84BE84" rx="3" ry="3" style="stroke:#038048;stroke-width:1.0;"></ellipse><text fill="#000000" font-family="sans-serif" font-size="14" lengthAdjust="spacing" textLength="290" x="378" y="510.2151">AuthorizePayment(amount: decimal): bool</text></g><!--class PayPalTransfer--><g id="elem_PayPalTransfer"><rect codeline="21" fill="#F1F1F1" height="64.2969" id="PayPalTransfer" rx="2.5" ry="2.5" style="stroke:#181818;stroke-width:0.5;" width="247" x="991.5" y="453.22"></rect><ellipse cx="1060.25" cy="469.22" fill="#ADD1B2" rx="11" ry="11" style="stroke:#181818;stroke-width:1.0;"></ellipse><path d="M1063.2188,474.8606 Q1062.6406,475.1575 1062,475.2981 Q1061.3594,475.4544 1060.6563,475.4544 Q1058.1563,475.4544 1056.8281,473.8137 Q1055.5156,472.1575 1055.5156,469.0325 Q1055.5156,465.9075 1056.8281,464.2512 Q1058.1563,462.595 1060.6563,462.595 Q1061.3594,462.595 1062,462.7512 Q1062.6563,462.9075 1063.2188,463.2044 L1063.2188,465.9231 Q1062.5938,465.345 1062,465.0794 Q1061.4063,464.7981 1060.7813,464.7981 Q1059.4375,464.7981 1058.75,465.8762 Q1058.0625,466.9387 1058.0625,469.0325 Q1058.0625,471.1262 1058.75,472.2044 Q1059.4375,473.2669 1060.7813,473.2669 Q1061.4063,473.2669 1062,473.0012 Q1062.5938,472.72 1063.2188,472.1419 L1063.2188,474.8606 Z " fill="#000000"></path><text fill="#000000" font-family="sans-serif" font-size="14" lengthAdjust="spacing" textLength="101" x="1080.75" y="474.0667">PayPalTransfer</text><line style="stroke:#181818;stroke-width:0.5;" x1="992.5" x2="1237.5" y1="485.22" y2="485.22"></line><line style="stroke:#181818;stroke-width:0.5;" x1="992.5" x2="1237.5" y1="493.22" y2="493.22"></line><ellipse cx="1002.5" cy="506.8684" fill="#84BE84" rx="3" ry="3" style="stroke:#038048;stroke-width:1.0;"></ellipse><text fill="#000000" font-family="sans-serif" font-size="14" lengthAdjust="spacing" textLength="221" x="1011.5" y="510.2151">Transfer(amount: decimal): bool</text></g><!--class IPaymentFactory--><g id="elem_IPaymentFactory"><rect codeline="25" fill="#F1F1F1" height="80.5938" id="IPaymentFactory" rx="2.5" ry="2.5" style="stroke:#181818;stroke-width:0.5;" width="336" x="1274" y="304.48"></rect><ellipse cx="1381.25" cy="320.48" fill="#ADD1B2" rx="11" ry="11" style="stroke:#181818;stroke-width:1.0;"></ellipse><path d="M1384.2188,326.1206 Q1383.6406,326.4175 1383,326.5581 Q1382.3594,326.7144 1381.6563,326.7144 Q1379.1563,326.7144 1377.8281,325.0737 Q1376.5156,323.4175 1376.5156,320.2925 Q1376.5156,317.1675 1377.8281,315.5112 Q1379.1563,313.855 1381.6563,313.855 Q1382.3594,313.855 1383,314.0112 Q1383.6563,314.1675 1384.2188,314.4644 L1384.2188,317.1831 Q1383.5938,316.605 1383,316.3394 Q1382.4063,316.0581 1381.7813,316.0581 Q1380.4375,316.0581 1379.75,317.1362 Q1379.0625,318.1987 1379.0625,320.2925 Q1379.0625,322.3862 1379.75,323.4644 Q1380.4375,324.5269 1381.7813,324.5269 Q1382.4063,324.5269 1383,324.2612 Q1383.5938,323.98 1384.2188,323.4019 L1384.2188,326.1206 Z " fill="#000000"></path><text fill="#000000" font-family="sans-serif" font-size="14" lengthAdjust="spacing" textLength="113" x="1401.75" y="325.3267">IPaymentFactory</text><line style="stroke:#181818;stroke-width:0.5;" x1="1275" x2="1609" y1="336.48" y2="336.48"></line><line style="stroke:#181818;stroke-width:0.5;" x1="1275" x2="1609" y1="344.48" y2="344.48"></line><ellipse cx="1285" cy="358.1284" fill="#84BE84" rx="3" ry="3" style="stroke:#038048;stroke-width:1.0;"></ellipse><text fill="#000000" font-family="sans-serif" font-size="14" lengthAdjust="spacing" textLength="310" x="1294" y="361.4751">CreateAuthorization(): IPaymentAuthorization</text><ellipse cx="1285" cy="374.4253" fill="#84BE84" rx="3" ry="3" style="stroke:#038048;stroke-width:1.0;"></ellipse><text fill="#000000" font-family="sans-serif" font-size="14" lengthAdjust="spacing" textLength="242" x="1294" y="377.772">CreateTransfer(): IPaymentTransfer</text></g><!--class CreditCardPaymentFactory--><g id="elem_CreditCardPaymentFactory"><rect codeline="30" fill="#F1F1F1" height="80.5938" id="CreditCardPaymentFactory" rx="2.5" ry="2.5" style="stroke:#181818;stroke-width:0.5;" width="336" x="1274" y="445.08"></rect><ellipse cx="1346.25" cy="461.08" fill="#ADD1B2" rx="11" ry="11" style="stroke:#181818;stroke-width:1.0;"></ellipse><path d="M1349.2188,466.7206 Q1348.6406,467.0175 1348,467.1581 Q1347.3594,467.3144 1346.6563,467.3144 Q1344.1563,467.3144 1342.8281,465.6737 Q1341.5156,464.0175 1341.5156,460.8925 Q1341.5156,457.7675 1342.8281,456.1112 Q1344.1563,454.455 1346.6563,454.455 Q1347.3594,454.455 1348,454.6112 Q1348.6563,454.7675 1349.2188,455.0644 L1349.2188,457.7831 Q1348.5938,457.205 1348,456.9394 Q1347.4063,456.6581 1346.7813,456.6581 Q1345.4375,456.6581 1344.75,457.7362 Q1344.0625,458.7987 1344.0625,460.8925 Q1344.0625,462.9862 1344.75,464.0644 Q1345.4375,465.1269 1346.7813,465.1269 Q1347.4063,465.1269 1348,464.8612 Q1348.5938,464.58 1349.2188,464.0019 L1349.2188,466.7206 Z " fill="#000000"></path><text fill="#000000" font-family="sans-serif" font-size="14" lengthAdjust="spacing" textLength="183" x="1366.75" y="465.9267">CreditCardPaymentFactory</text><line style="stroke:#181818;stroke-width:0.5;" x1="1275" x2="1609" y1="477.08" y2="477.08"></line><line style="stroke:#181818;stroke-width:0.5;" x1="1275" x2="1609" y1="485.08" y2="485.08"></line><ellipse cx="1285" cy="498.7284" fill="#84BE84" rx="3" ry="3" style="stroke:#038048;stroke-width:1.0;"></ellipse><text fill="#000000" font-family="sans-serif" font-size="14" lengthAdjust="spacing" textLength="310" x="1294" y="502.0751">CreateAuthorization(): IPaymentAuthorization</text><ellipse cx="1285" cy="515.0253" fill="#84BE84" rx="3" ry="3" style="stroke:#038048;stroke-width:1.0;"></ellipse><text fill="#000000" font-family="sans-serif" font-size="14" lengthAdjust="spacing" textLength="242" x="1294" y="518.372">CreateTransfer(): IPaymentTransfer</text></g><!--class PayPalPaymentFactory--><g id="elem_PayPalPaymentFactory"><rect codeline="35" fill="#F1F1F1" height="80.5938" id="PayPalPaymentFactory" rx="2.5" ry="2.5" style="stroke:#181818;stroke-width:0.5;" width="336" x="1645" y="445.08"></rect><ellipse cx="1731.75" cy="461.08" fill="#ADD1B2" rx="11" ry="11" style="stroke:#181818;stroke-width:1.0;"></ellipse><path d="M1734.7188,466.7206 Q1734.1406,467.0175 1733.5,467.1581 Q1732.8594,467.3144 1732.1563,467.3144 Q1729.6563,467.3144 1728.3281,465.6737 Q1727.0156,464.0175 1727.0156,460.8925 Q1727.0156,457.7675 1728.3281,456.1112 Q1729.6563,454.455 1732.1563,454.455 Q1732.8594,454.455 1733.5,454.6112 Q1734.1563,454.7675 1734.7188,455.0644 L1734.7188,457.7831 Q1734.0938,457.205 1733.5,456.9394 Q1732.9063,456.6581 1732.2813,456.6581 Q1730.9375,456.6581 1730.25,457.7362 Q1729.5625,458.7987 1729.5625,460.8925 Q1729.5625,462.9862 1730.25,464.0644 Q1730.9375,465.1269 1732.2813,465.1269 Q1732.9063,465.1269 1733.5,464.8612 Q1734.0938,464.58 1734.7188,464.0019 L1734.7188,466.7206 Z " fill="#000000"></path><text fill="#000000" font-family="sans-serif" font-size="14" lengthAdjust="spacing" textLength="154" x="1752.25" y="465.9267">PayPalPaymentFactory</text><line style="stroke:#181818;stroke-width:0.5;" x1="1646" x2="1980" y1="477.08" y2="477.08"></line><line style="stroke:#181818;stroke-width:0.5;" x1="1646" x2="1980" y1="485.08" y2="485.08"></line><ellipse cx="1656" cy="498.7284" fill="#84BE84" rx="3" ry="3" style="stroke:#038048;stroke-width:1.0;"></ellipse><text fill="#000000" font-family="sans-serif" font-size="14" lengthAdjust="spacing" textLength="310" x="1665" y="502.0751">CreateAuthorization(): IPaymentAuthorization</text><ellipse cx="1656" cy="515.0253" fill="#84BE84" rx="3" ry="3" style="stroke:#038048;stroke-width:1.0;"></ellipse><text fill="#000000" font-family="sans-serif" font-size="14" lengthAdjust="spacing" textLength="242" x="1665" y="518.372">CreateTransfer(): IPaymentTransfer</text></g><!--class PaymentProcessor--><g id="elem_PaymentProcessor"><rect codeline="40" fill="#F1F1F1" height="113.1875" id="PaymentProcessor" rx="2.5" ry="2.5" style="stroke:#181818;stroke-width:0.5;" width="334" x="807" y="131.29"></rect><ellipse cx="904.75" cy="147.29" fill="#ADD1B2" rx="11" ry="11" style="stroke:#181818;stroke-width:1.0;"></ellipse><path d="M907.7188,152.9306 Q907.1406,153.2275 906.5,153.3681 Q905.8594,153.5244 905.1563,153.5244 Q902.6563,153.5244 901.3281,151.8837 Q900.0156,150.2275 900.0156,147.1025 Q900.0156,143.9775 901.3281,142.3212 Q902.6563,140.665 905.1563,140.665 Q905.8594,140.665 906.5,140.8212 Q907.1563,140.9775 907.7188,141.2744 L907.7188,143.9931 Q907.0938,143.415 906.5,143.1494 Q905.9063,142.8681 905.2813,142.8681 Q903.9375,142.8681 903.25,143.9462 Q902.5625,145.0087 902.5625,147.1025 Q902.5625,149.1962 903.25,150.2744 Q903.9375,151.3369 905.2813,151.3369 Q905.9063,151.3369 906.5,151.0712 Q907.0938,150.79 907.7188,150.2119 L907.7188,152.9306 Z " fill="#000000"></path><text fill="#000000" font-family="sans-serif" font-size="14" lengthAdjust="spacing" textLength="130" x="925.25" y="152.1367">PaymentProcessor</text><line style="stroke:#181818;stroke-width:0.5;" x1="808" x2="1140" y1="163.29" y2="163.29"></line><rect fill="none" height="6" style="stroke:#C82930;stroke-width:1.0;" width="6" x="815" y="173.9384"></rect><text fill="#000000" font-family="sans-serif" font-size="14" lengthAdjust="spacing" textLength="260" x="827" y="180.2851">_authorization: IPaymentAuthorization</text><rect fill="none" height="6" style="stroke:#C82930;stroke-width:1.0;" width="6" x="815" y="190.2353"></rect><text fill="#000000" font-family="sans-serif" font-size="14" lengthAdjust="spacing" textLength="189" x="827" y="196.582">_transfer: IPaymentTransfer</text><line style="stroke:#181818;stroke-width:0.5;" x1="808" x2="1140" y1="203.8837" y2="203.8837"></line><ellipse cx="818" cy="217.5322" fill="#84BE84" rx="3" ry="3" style="stroke:#038048;stroke-width:1.0;"></ellipse><text fill="#000000" font-family="sans-serif" font-size="14" lengthAdjust="spacing" textLength="308" x="827" y="220.8789">PaymentProcessor(factory: IPaymentFactory)</text><ellipse cx="818" cy="233.8291" fill="#84BE84" rx="3" ry="3" style="stroke:#038048;stroke-width:1.0;"></ellipse><text fill="#000000" font-family="sans-serif" font-size="14" lengthAdjust="spacing" textLength="280" x="827" y="237.1757">ProcessPayment(amount: decimal): bool</text></g><!--class Program--><g id="elem_Program"><rect codeline="47" fill="#F1F1F1" height="64.2969" id="Program" rx="2.5" ry="2.5" style="stroke:#181818;stroke-width:0.5;" width="90" x="929" y="7"></rect><ellipse cx="944" cy="23" fill="#ADD1B2" rx="11" ry="11" style="stroke:#181818;stroke-width:1.0;"></ellipse><path d="M946.9688,28.6406 Q946.3906,28.9375 945.75,29.0781 Q945.1094,29.2344 944.4063,29.2344 Q941.9063,29.2344 940.5781,27.5938 Q939.2656,25.9375 939.2656,22.8125 Q939.2656,19.6875 940.5781,18.0313 Q941.9063,16.375 944.4063,16.375 Q945.1094,16.375 945.75,16.5313 Q946.4063,16.6875 946.9688,16.9844 L946.9688,19.7031 Q946.3438,19.125 945.75,18.8594 Q945.1563,18.5781 944.5313,18.5781 Q943.1875,18.5781 942.5,19.6563 Q941.8125,20.7188 941.8125,22.8125 Q941.8125,24.9063 942.5,25.9844 Q943.1875,27.0469 944.5313,27.0469 Q945.1563,27.0469 945.75,26.7813 Q946.3438,26.5 946.9688,25.9219 L946.9688,28.6406 Z " fill="#000000"></path><text fill="#000000" font-family="sans-serif" font-size="14" lengthAdjust="spacing" textLength="58" x="958" y="27.8467">Program</text><line style="stroke:#181818;stroke-width:0.5;" x1="930" x2="1018" y1="39" y2="39"></line><line style="stroke:#181818;stroke-width:0.5;" x1="930" x2="1018" y1="47" y2="47"></line><ellipse cx="940" cy="60.6484" fill="#84BE84" rx="3" ry="3" style="stroke:#038048;stroke-width:1.0;"></ellipse><text fill="#000000" font-family="sans-serif" font-size="14" lengthAdjust="spacing" textLength="42" x="949" y="63.9951">Main()</text></g><!--reverse link IPaymentAuthorization to CreditCardAuthorization--><g id="link_IPaymentAuthorization_CreditCardAuthorization"><path codeline="51" d="M416.51,385.06 C362.24,406.49 295.94,432.67 245.05,452.77 " fill="none" id="IPaymentAuthorization-backto-CreditCardAuthorization" style="stroke:#181818;stroke-width:1.0;stroke-dasharray:7.0,7.0;"></path><polygon fill="none" points="413.74,378.24,434.91,377.4,418.88,391.26,413.74,378.24" style="stroke:#181818;stroke-width:1.0;"></polygon></g><!--reverse link IPaymentAuthorization to PayPalAuthorization--><g id="link_IPaymentAuthorization_PayPalAuthorization"><path codeline="52" d="M516,398.17 C516,416.66 516,436.86 516,453.05 " fill="none" id="IPaymentAuthorization-backto-PayPalAuthorization" style="stroke:#181818;stroke-width:1.0;stroke-dasharray:7.0,7.0;"></path><polygon fill="none" points="509,398.23,516,378.23,523,398.23,509,398.23" style="stroke:#181818;stroke-width:1.0;"></polygon></g><!--reverse link IPaymentTransfer to CreditCardTransfer--><g id="link_IPaymentTransfer_CreditCardTransfer"><path codeline="54" d="M927.09,391.88 C906.66,411.97 883.23,435 864.87,453.05 " fill="none" id="IPaymentTransfer-backto-CreditCardTransfer" style="stroke:#181818;stroke-width:1.0;stroke-dasharray:7.0,7.0;"></path><polygon fill="none" points="921.83,387.26,941,378.23,931.65,397.24,921.83,387.26" style="stroke:#181818;stroke-width:1.0;"></polygon></g><!--reverse link IPaymentTransfer to PayPalTransfer--><g id="link_IPaymentTransfer_PayPalTransfer"><path codeline="55" d="M1020.91,391.88 C1041.34,411.97 1064.77,435 1083.13,453.05 " fill="none" id="IPaymentTransfer-backto-PayPalTransfer" style="stroke:#181818;stroke-width:1.0;stroke-dasharray:7.0,7.0;"></path><polygon fill="none" points="1016.35,397.24,1007,378.23,1026.17,387.26,1016.35,397.24" style="stroke:#181818;stroke-width:1.0;"></polygon></g><!--reverse link IPaymentFactory to CreditCardPaymentFactory--><g id="link_IPaymentFactory_CreditCardPaymentFactory"><path codeline="57" d="M1442,406.06 C1442,419.12 1442,432.62 1442,444.65 " fill="none" id="IPaymentFactory-backto-CreditCardPaymentFactory" style="stroke:#181818;stroke-width:1.0;stroke-dasharray:7.0,7.0;"></path><polygon fill="none" points="1435,406.49,1442,386.49,1449,406.49,1435,406.49" style="stroke:#181818;stroke-width:1.0;"></polygon></g><!--reverse link IPaymentFactory to PayPalPaymentFactory--><g id="link_IPaymentFactory_PayPalPaymentFactory"><path codeline="58" d="M1567.95,392.83 C1613.05,409.68 1663.4,428.49 1706.67,444.65 " fill="none" id="IPaymentFactory-backto-PayPalPaymentFactory" style="stroke:#181818;stroke-width:1.0;stroke-dasharray:7.0,7.0;"></path><polygon fill="none" points="1565.6,399.05,1549.31,385.49,1570.5,385.94,1565.6,399.05" style="stroke:#181818;stroke-width:1.0;"></polygon></g><!--reverse link PaymentProcessor to IPaymentAuthorization--><g id="link_PaymentProcessor_IPaymentAuthorization"><path codeline="60" d="M795.29,249.33 C731.78,270.8 662.85,294.12 609.36,312.21 " fill="none" id="PaymentProcessor-backto-IPaymentAuthorization" style="stroke:#181818;stroke-width:1.0;"></path><polygon fill="none" points="807.33,244.92,800.3658,243.0492,795.9604,248.7582,802.9246,250.629,807.33,244.92" style="stroke:#181818;stroke-width:1.0;"></polygon></g><!--reverse link PaymentProcessor to IPaymentTransfer--><g id="link_PaymentProcessor_IPaymentTransfer"><path codeline="61" d="M974,258.63 C974,277.39 974,296.76 974,312.27 " fill="none" id="PaymentProcessor-backto-IPaymentTransfer" style="stroke:#181818;stroke-width:1.0;"></path><polygon fill="none" points="974,245.81,970,251.81,974,257.81,978,251.81,974,245.81" style="stroke:#181818;stroke-width:1.0;"></polygon></g><!--link PaymentProcessor to IPaymentFactory--><g id="link_PaymentProcessor_IPaymentFactory"><path codeline="62" d="M1141.31,244.26 C1199.02,263.36 1262.64,284.42 1316.44,302.22 " fill="none" id="PaymentProcessor-to-IPaymentFactory" style="stroke:#181818;stroke-width:1.0;"></path><polygon fill="#181818" points="1320.94,304.05,1313.6488,297.4289,1316.1923,302.4817,1311.1395,305.0252,1320.94,304.05" style="stroke:#181818;stroke-width:1.0;"></polygon></g><!--link Program to PaymentProcessor--><g id="link_Program_PaymentProcessor"><path codeline="64" d="M974,71.63 C974,87.27 974,106.74 974,125.19 " fill="none" id="Program-to-PaymentProcessor" style="stroke:#181818;stroke-width:1.0;"></path><polygon fill="#181818" points="974,129.88,978,120.88,974,124.88,970,120.88,974,129.88" style="stroke:#181818;stroke-width:1.0;"></polygon></g><!--SRC=[nLD1QiCm4Bph5Jew1EK19XH2eD13mOVSmrPMKe7jXPLoI9l-lN9asR4YfoM4zYZjxCneHoihC8Q_572iLMDN1_kEf3_0Qcpu9-Dy7gvK1ycWnaDZSruggMkePZb_GwpO5sDonBKXQCnEaQS9fn_RrwHARTT0vIFC36ntsd521LIFiEAPxhGHXleCqY8TVRTx75WryfQvpcIO0xxNl826kzJW_bhPp-aVLDj2GIYLCUZp4Lkuv9oM4blRCIOqd9EOFTlvT-LniBCpsiD-_R48zmIrdz4hQ3UKjfZUwULfiPZQiLijYJqO9FfF7R7t8qW3nninq8NG8xPnDOrEVHx6hi958IQol0djhLwXX7YAetIoNJ1jCUxu1W00]--></g></svg>