<!--?xml version="1.0" encoding="us-ascii" standalone="no"?--><svg xmlns="http://www.w3.org/2000/svg" xmlns:xlink="http://www.w3.org/1999/xlink" contentstyletype="text/css" height="483px" preserveAspectRatio="none" style="width:714px;height:483px;background:#FFFFFF;" version="1.1" viewBox="0 0 714 483" width="714px" zoomAndPan="magnify"><defs></defs><g><!--class AbstractFactory--><g id="elem_AbstractFactory"><rect codeline="1" fill="#F1F1F1" height="80.5938" id="AbstractFactory" rx="2.5" ry="2.5" style="stroke:#181818;stroke-width:0.5;" width="274" x="204" y="7"></rect><ellipse cx="283.25" cy="23" fill="#B4A7E5" rx="11" ry="11" style="stroke:#181818;stroke-width:1.0;"></ellipse><path d="M279.1719,18.7656 L279.1719,16.6094 L286.5625,16.6094 L286.5625,18.7656 L284.0938,18.7656 L284.0938,26.8438 L286.5625,26.8438 L286.5625,29 L279.1719,29 L279.1719,26.8438 L281.6406,26.8438 L281.6406,18.7656 L279.1719,18.7656 Z " fill="#000000"></path><text fill="#000000" font-family="sans-serif" font-size="14" font-style="italic" lengthAdjust="spacing" textLength="107" x="303.75" y="27.8467">AbstractFactory</text><line style="stroke:#181818;stroke-width:0.5;" x1="205" x2="477" y1="39" y2="39"></line><line style="stroke:#181818;stroke-width:0.5;" x1="205" x2="477" y1="47" y2="47"></line><ellipse cx="215" cy="60.6484" fill="#84BE84" rx="3" ry="3" style="stroke:#038048;stroke-width:1.0;"></ellipse><text fill="#000000" font-family="sans-serif" font-size="14" lengthAdjust="spacing" textLength="246" x="224" y="63.9951">createProductA(): AbstractProductA</text><ellipse cx="215" cy="76.9453" fill="#84BE84" rx="3" ry="3" style="stroke:#038048;stroke-width:1.0;"></ellipse><text fill="#000000" font-family="sans-serif" font-size="14" lengthAdjust="spacing" textLength="248" x="224" y="80.292">createProductB(): AbstractProductB</text></g><!--class ConcreteFactory1--><g id="elem_ConcreteFactory1"><rect codeline="6" fill="#F1F1F1" height="80.5938" id="ConcreteFactory1" rx="2.5" ry="2.5" style="stroke:#181818;stroke-width:0.5;" width="274" x="50" y="147.59"></rect><ellipse cx="121.25" cy="163.59" fill="#ADD1B2" rx="11" ry="11" style="stroke:#181818;stroke-width:1.0;"></ellipse><path d="M124.2188,169.2306 Q123.6406,169.5275 123,169.6681 Q122.3594,169.8244 121.6563,169.8244 Q119.1563,169.8244 117.8281,168.1837 Q116.5156,166.5275 116.5156,163.4025 Q116.5156,160.2775 117.8281,158.6212 Q119.1563,156.965 121.6563,156.965 Q122.3594,156.965 123,157.1212 Q123.6563,157.2775 124.2188,157.5744 L124.2188,160.2931 Q123.5938,159.715 123,159.4494 Q122.4063,159.1681 121.7813,159.1681 Q120.4375,159.1681 119.75,160.2462 Q119.0625,161.3087 119.0625,163.4025 Q119.0625,165.4962 119.75,166.5744 Q120.4375,167.6369 121.7813,167.6369 Q122.4063,167.6369 123,167.3712 Q123.5938,167.09 124.2188,166.5119 L124.2188,169.2306 Z " fill="#000000"></path><text fill="#000000" font-family="sans-serif" font-size="14" lengthAdjust="spacing" textLength="123" x="141.75" y="168.4367">ConcreteFactory1</text><line style="stroke:#181818;stroke-width:0.5;" x1="51" x2="323" y1="179.59" y2="179.59"></line><line style="stroke:#181818;stroke-width:0.5;" x1="51" x2="323" y1="187.59" y2="187.59"></line><ellipse cx="61" cy="201.2384" fill="#84BE84" rx="3" ry="3" style="stroke:#038048;stroke-width:1.0;"></ellipse><text fill="#000000" font-family="sans-serif" font-size="14" lengthAdjust="spacing" textLength="246" x="70" y="204.5851">createProductA(): AbstractProductA</text><ellipse cx="61" cy="217.5353" fill="#84BE84" rx="3" ry="3" style="stroke:#038048;stroke-width:1.0;"></ellipse><text fill="#000000" font-family="sans-serif" font-size="14" lengthAdjust="spacing" textLength="248" x="70" y="220.882">createProductB(): AbstractProductB</text></g><!--class ConcreteFactory2--><g id="elem_ConcreteFactory2"><rect codeline="11" fill="#F1F1F1" height="80.5938" id="ConcreteFactory2" rx="2.5" ry="2.5" style="stroke:#181818;stroke-width:0.5;" width="274" x="359" y="147.59"></rect><ellipse cx="430.25" cy="163.59" fill="#ADD1B2" rx="11" ry="11" style="stroke:#181818;stroke-width:1.0;"></ellipse><path d="M433.2188,169.2306 Q432.6406,169.5275 432,169.6681 Q431.3594,169.8244 430.6563,169.8244 Q428.1563,169.8244 426.8281,168.1837 Q425.5156,166.5275 425.5156,163.4025 Q425.5156,160.2775 426.8281,158.6212 Q428.1563,156.965 430.6563,156.965 Q431.3594,156.965 432,157.1212 Q432.6563,157.2775 433.2188,157.5744 L433.2188,160.2931 Q432.5938,159.715 432,159.4494 Q431.4063,159.1681 430.7813,159.1681 Q429.4375,159.1681 428.75,160.2462 Q428.0625,161.3087 428.0625,163.4025 Q428.0625,165.4962 428.75,166.5744 Q429.4375,167.6369 430.7813,167.6369 Q431.4063,167.6369 432,167.3712 Q432.5938,167.09 433.2188,166.5119 L433.2188,169.2306 Z " fill="#000000"></path><text fill="#000000" font-family="sans-serif" font-size="14" lengthAdjust="spacing" textLength="123" x="450.75" y="168.4367">ConcreteFactory2</text><line style="stroke:#181818;stroke-width:0.5;" x1="360" x2="632" y1="179.59" y2="179.59"></line><line style="stroke:#181818;stroke-width:0.5;" x1="360" x2="632" y1="187.59" y2="187.59"></line><ellipse cx="370" cy="201.2384" fill="#84BE84" rx="3" ry="3" style="stroke:#038048;stroke-width:1.0;"></ellipse><text fill="#000000" font-family="sans-serif" font-size="14" lengthAdjust="spacing" textLength="246" x="379" y="204.5851">createProductA(): AbstractProductA</text><ellipse cx="370" cy="217.5353" fill="#84BE84" rx="3" ry="3" style="stroke:#038048;stroke-width:1.0;"></ellipse><text fill="#000000" font-family="sans-serif" font-size="14" lengthAdjust="spacing" textLength="248" x="379" y="220.882">createProductB(): AbstractProductB</text></g><!--class AbstractProductA--><g id="elem_AbstractProductA"><rect codeline="16" fill="#F1F1F1" height="64.2969" id="AbstractProductA" rx="2.5" ry="2.5" style="stroke:#181818;stroke-width:0.5;" width="152" x="172" y="288.19"></rect><ellipse cx="187" cy="304.19" fill="#B4A7E5" rx="11" ry="11" style="stroke:#181818;stroke-width:1.0;"></ellipse><path d="M182.9219,299.9556 L182.9219,297.7994 L190.3125,297.7994 L190.3125,299.9556 L187.8438,299.9556 L187.8438,308.0337 L190.3125,308.0337 L190.3125,310.19 L182.9219,310.19 L182.9219,308.0337 L185.3906,308.0337 L185.3906,299.9556 L182.9219,299.9556 Z " fill="#000000"></path><text fill="#000000" font-family="sans-serif" font-size="14" font-style="italic" lengthAdjust="spacing" textLength="120" x="201" y="309.0367">AbstractProductA</text><line style="stroke:#181818;stroke-width:0.5;" x1="173" x2="323" y1="320.19" y2="320.19"></line><line style="stroke:#181818;stroke-width:0.5;" x1="173" x2="323" y1="328.19" y2="328.19"></line><ellipse cx="183" cy="341.8384" fill="#84BE84" rx="3" ry="3" style="stroke:#038048;stroke-width:1.0;"></ellipse><text fill="#000000" font-family="sans-serif" font-size="14" lengthAdjust="spacing" textLength="122" x="192" y="345.1851">operationA(): void</text></g><!--class AbstractProductB--><g id="elem_AbstractProductB"><rect codeline="20" fill="#F1F1F1" height="64.2969" id="AbstractProductB" rx="2.5" ry="2.5" style="stroke:#181818;stroke-width:0.5;" width="153" x="388.5" y="288.19"></rect><ellipse cx="403.5" cy="304.19" fill="#B4A7E5" rx="11" ry="11" style="stroke:#181818;stroke-width:1.0;"></ellipse><path d="M399.4219,299.9556 L399.4219,297.7994 L406.8125,297.7994 L406.8125,299.9556 L404.3438,299.9556 L404.3438,308.0337 L406.8125,308.0337 L406.8125,310.19 L399.4219,310.19 L399.4219,308.0337 L401.8906,308.0337 L401.8906,299.9556 L399.4219,299.9556 Z " fill="#000000"></path><text fill="#000000" font-family="sans-serif" font-size="14" font-style="italic" lengthAdjust="spacing" textLength="121" x="417.5" y="309.0367">AbstractProductB</text><line style="stroke:#181818;stroke-width:0.5;" x1="389.5" x2="540.5" y1="320.19" y2="320.19"></line><line style="stroke:#181818;stroke-width:0.5;" x1="389.5" x2="540.5" y1="328.19" y2="328.19"></line><ellipse cx="399.5" cy="341.8384" fill="#84BE84" rx="3" ry="3" style="stroke:#038048;stroke-width:1.0;"></ellipse><text fill="#000000" font-family="sans-serif" font-size="14" lengthAdjust="spacing" textLength="123" x="408.5" y="345.1851">operationB(): void</text></g><!--class ProductA1--><g id="elem_ProductA1"><rect codeline="24" fill="#F1F1F1" height="64.2969" id="ProductA1" rx="2.5" ry="2.5" style="stroke:#181818;stroke-width:0.5;" width="148" x="7" y="412.48"></rect><ellipse cx="41.8" cy="428.48" fill="#ADD1B2" rx="11" ry="11" style="stroke:#181818;stroke-width:1.0;"></ellipse><path d="M44.7688,434.1206 Q44.1906,434.4175 43.55,434.5581 Q42.9094,434.7144 42.2063,434.7144 Q39.7063,434.7144 38.3781,433.0737 Q37.0656,431.4175 37.0656,428.2925 Q37.0656,425.1675 38.3781,423.5112 Q39.7063,421.855 42.2063,421.855 Q42.9094,421.855 43.55,422.0112 Q44.2063,422.1675 44.7688,422.4644 L44.7688,425.1831 Q44.1438,424.605 43.55,424.3394 Q42.9563,424.0581 42.3313,424.0581 Q40.9875,424.0581 40.3,425.1362 Q39.6125,426.1987 39.6125,428.2925 Q39.6125,430.3862 40.3,431.4644 Q40.9875,432.5269 42.3313,432.5269 Q42.9563,432.5269 43.55,432.2612 Q44.1438,431.98 44.7688,431.4019 L44.7688,434.1206 Z " fill="#000000"></path><text fill="#000000" font-family="sans-serif" font-size="14" lengthAdjust="spacing" textLength="72" x="60.2" y="433.3267">ProductA1</text><line style="stroke:#181818;stroke-width:0.5;" x1="8" x2="154" y1="444.48" y2="444.48"></line><line style="stroke:#181818;stroke-width:0.5;" x1="8" x2="154" y1="452.48" y2="452.48"></line><ellipse cx="18" cy="466.1284" fill="#84BE84" rx="3" ry="3" style="stroke:#038048;stroke-width:1.0;"></ellipse><text fill="#000000" font-family="sans-serif" font-size="14" lengthAdjust="spacing" textLength="122" x="27" y="469.4751">operationA(): void</text></g><!--class ProductA2--><g id="elem_ProductA2"><rect codeline="28" fill="#F1F1F1" height="64.2969" id="ProductA2" rx="2.5" ry="2.5" style="stroke:#181818;stroke-width:0.5;" width="148" x="190" y="412.48"></rect><ellipse cx="224.8" cy="428.48" fill="#ADD1B2" rx="11" ry="11" style="stroke:#181818;stroke-width:1.0;"></ellipse><path d="M227.7688,434.1206 Q227.1906,434.4175 226.55,434.5581 Q225.9094,434.7144 225.2063,434.7144 Q222.7063,434.7144 221.3781,433.0737 Q220.0656,431.4175 220.0656,428.2925 Q220.0656,425.1675 221.3781,423.5112 Q222.7063,421.855 225.2063,421.855 Q225.9094,421.855 226.55,422.0112 Q227.2063,422.1675 227.7688,422.4644 L227.7688,425.1831 Q227.1438,424.605 226.55,424.3394 Q225.9563,424.0581 225.3313,424.0581 Q223.9875,424.0581 223.3,425.1362 Q222.6125,426.1987 222.6125,428.2925 Q222.6125,430.3862 223.3,431.4644 Q223.9875,432.5269 225.3313,432.5269 Q225.9563,432.5269 226.55,432.2612 Q227.1438,431.98 227.7688,431.4019 L227.7688,434.1206 Z " fill="#000000"></path><text fill="#000000" font-family="sans-serif" font-size="14" lengthAdjust="spacing" textLength="72" x="243.2" y="433.3267">ProductA2</text><line style="stroke:#181818;stroke-width:0.5;" x1="191" x2="337" y1="444.48" y2="444.48"></line><line style="stroke:#181818;stroke-width:0.5;" x1="191" x2="337" y1="452.48" y2="452.48"></line><ellipse cx="201" cy="466.1284" fill="#84BE84" rx="3" ry="3" style="stroke:#038048;stroke-width:1.0;"></ellipse><text fill="#000000" font-family="sans-serif" font-size="14" lengthAdjust="spacing" textLength="122" x="210" y="469.4751">operationA(): void</text></g><!--class ProductB1--><g id="elem_ProductB1"><rect codeline="32" fill="#F1F1F1" height="64.2969" id="ProductB1" rx="2.5" ry="2.5" style="stroke:#181818;stroke-width:0.5;" width="149" x="374.5" y="412.48"></rect><ellipse cx="409.3" cy="428.48" fill="#ADD1B2" rx="11" ry="11" style="stroke:#181818;stroke-width:1.0;"></ellipse><path d="M412.2688,434.1206 Q411.6906,434.4175 411.05,434.5581 Q410.4094,434.7144 409.7063,434.7144 Q407.2063,434.7144 405.8781,433.0737 Q404.5656,431.4175 404.5656,428.2925 Q404.5656,425.1675 405.8781,423.5112 Q407.2063,421.855 409.7063,421.855 Q410.4094,421.855 411.05,422.0112 Q411.7063,422.1675 412.2688,422.4644 L412.2688,425.1831 Q411.6438,424.605 411.05,424.3394 Q410.4563,424.0581 409.8313,424.0581 Q408.4875,424.0581 407.8,425.1362 Q407.1125,426.1987 407.1125,428.2925 Q407.1125,430.3862 407.8,431.4644 Q408.4875,432.5269 409.8313,432.5269 Q410.4563,432.5269 411.05,432.2612 Q411.6438,431.98 412.2688,431.4019 L412.2688,434.1206 Z " fill="#000000"></path><text fill="#000000" font-family="sans-serif" font-size="14" lengthAdjust="spacing" textLength="73" x="427.7" y="433.3267">ProductB1</text><line style="stroke:#181818;stroke-width:0.5;" x1="375.5" x2="522.5" y1="444.48" y2="444.48"></line><line style="stroke:#181818;stroke-width:0.5;" x1="375.5" x2="522.5" y1="452.48" y2="452.48"></line><ellipse cx="385.5" cy="466.1284" fill="#84BE84" rx="3" ry="3" style="stroke:#038048;stroke-width:1.0;"></ellipse><text fill="#000000" font-family="sans-serif" font-size="14" lengthAdjust="spacing" textLength="123" x="394.5" y="469.4751">operationB(): void</text></g><!--class ProductB2--><g id="elem_ProductB2"><rect codeline="36" fill="#F1F1F1" height="64.2969" id="ProductB2" rx="2.5" ry="2.5" style="stroke:#181818;stroke-width:0.5;" width="149" x="558.5" y="412.48"></rect><ellipse cx="593.3" cy="428.48" fill="#ADD1B2" rx="11" ry="11" style="stroke:#181818;stroke-width:1.0;"></ellipse><path d="M596.2688,434.1206 Q595.6906,434.4175 595.05,434.5581 Q594.4094,434.7144 593.7063,434.7144 Q591.2063,434.7144 589.8781,433.0737 Q588.5656,431.4175 588.5656,428.2925 Q588.5656,425.1675 589.8781,423.5112 Q591.2063,421.855 593.7063,421.855 Q594.4094,421.855 595.05,422.0112 Q595.7063,422.1675 596.2688,422.4644 L596.2688,425.1831 Q595.6438,424.605 595.05,424.3394 Q594.4563,424.0581 593.8313,424.0581 Q592.4875,424.0581 591.8,425.1362 Q591.1125,426.1987 591.1125,428.2925 Q591.1125,430.3862 591.8,431.4644 Q592.4875,432.5269 593.8313,432.5269 Q594.4563,432.5269 595.05,432.2612 Q595.6438,431.98 596.2688,431.4019 L596.2688,434.1206 Z " fill="#000000"></path><text fill="#000000" font-family="sans-serif" font-size="14" lengthAdjust="spacing" textLength="73" x="611.7" y="433.3267">ProductB2</text><line style="stroke:#181818;stroke-width:0.5;" x1="559.5" x2="706.5" y1="444.48" y2="444.48"></line><line style="stroke:#181818;stroke-width:0.5;" x1="559.5" x2="706.5" y1="452.48" y2="452.48"></line><ellipse cx="569.5" cy="466.1284" fill="#84BE84" rx="3" ry="3" style="stroke:#038048;stroke-width:1.0;"></ellipse><text fill="#000000" font-family="sans-serif" font-size="14" lengthAdjust="spacing" textLength="123" x="578.5" y="469.4751">operationB(): void</text></g><!--reverse link AbstractFactory to ConcreteFactory1--><g id="link_AbstractFactory_ConcreteFactory1"><path codeline="40" d="M281.32,102.01 C264.61,117.04 246.76,133.1 231.14,147.17 " fill="none" id="AbstractFactory-backto-ConcreteFactory1" style="stroke:#181818;stroke-width:1.0;stroke-dasharray:7.0,7.0;"></path><polygon fill="none" points="276.32,97.19,295.87,89.01,285.69,107.59,276.32,97.19" style="stroke:#181818;stroke-width:1.0;"></polygon></g><!--reverse link AbstractFactory to ConcreteFactory2--><g id="link_AbstractFactory_ConcreteFactory2"><path codeline="41" d="M401.07,102.01 C417.88,117.04 435.85,133.1 451.58,147.17 " fill="none" id="AbstractFactory-backto-ConcreteFactory2" style="stroke:#181818;stroke-width:1.0;stroke-dasharray:7.0,7.0;"></path><polygon fill="none" points="396.66,107.56,386.42,89.01,405.99,97.12,396.66,107.56" style="stroke:#181818;stroke-width:1.0;"></polygon></g><!--reverse link AbstractProductA to ProductA1--><g id="link_AbstractProductA_ProductA1"><path codeline="42" d="M188.24,365.1 C167.06,380.61 143.67,397.74 124.15,412.03 " fill="none" id="AbstractProductA-backto-ProductA1" style="stroke:#181818;stroke-width:1.0;stroke-dasharray:7.0,7.0;"></path><polygon fill="none" points="183.72,359,203.99,352.83,191.99,370.29,183.72,359" style="stroke:#181818;stroke-width:1.0;"></polygon></g><!--reverse link AbstractProductA to ProductA2--><g id="link_AbstractProductA_ProductA2"><path codeline="43" d="M254.81,373.41 C256.54,386.62 258.35,400.42 259.89,412.24 " fill="none" id="AbstractProductA-backto-ProductA2" style="stroke:#181818;stroke-width:1.0;stroke-dasharray:7.0,7.0;"></path><polygon fill="none" points="247.77,374.57,252.12,353.83,261.66,372.75,247.77,374.57" style="stroke:#181818;stroke-width:1.0;"></polygon></g><!--reverse link AbstractProductB to ProductB1--><g id="link_AbstractProductB_ProductB1"><path codeline="44" d="M458.19,373.41 C456.46,386.62 454.65,400.42 453.11,412.24 " fill="none" id="AbstractProductB-backto-ProductB1" style="stroke:#181818;stroke-width:1.0;stroke-dasharray:7.0,7.0;"></path><polygon fill="none" points="451.34,372.75,460.88,353.83,465.23,374.57,451.34,372.75" style="stroke:#181818;stroke-width:1.0;"></polygon></g><!--reverse link AbstractProductB to ProductB2--><g id="link_AbstractProductB_ProductB2"><path codeline="45" d="M525.12,365.1 C546.42,380.61 569.95,397.74 589.59,412.03 " fill="none" id="AbstractProductB-backto-ProductB2" style="stroke:#181818;stroke-width:1.0;stroke-dasharray:7.0,7.0;"></path><polygon fill="none" points="521.31,370.26,509.26,352.83,529.55,358.94,521.31,370.26" style="stroke:#181818;stroke-width:1.0;"></polygon></g><!--link ConcreteFactory1 to AbstractProductA--><g id="link_ConcreteFactory1_AbstractProductA"><path codeline="46" d="M205.47,228.38 C213.54,245.64 222.95,265.77 230.86,282.69 " fill="none" id="ConcreteFactory1-to-AbstractProductA" style="stroke:#181818;stroke-width:1.0;"></path><polygon fill="#181818" points="233.27,286.83,233.0616,276.9833,231.1431,282.3049,225.8215,280.3864,233.27,286.83" style="stroke:#181818;stroke-width:1.0;"></polygon></g><!--link ConcreteFactory1 to AbstractProductB--><g id="link_ConcreteFactory1_AbstractProductB"><path codeline="47" d="M271.54,228.56 C310.06,246.63 355.21,267.82 392.2,285.17 " fill="none" id="ConcreteFactory1-to-AbstractProductB" style="stroke:#181818;stroke-width:1.0;"></path><polygon fill="#181818" points="396.6,287.71,390.1372,280.2782,392.0694,285.5948,386.7528,287.5271,396.6,287.71" style="stroke:#181818;stroke-width:1.0;"></polygon></g><!--link ConcreteFactory2 to AbstractProductA--><g id="link_ConcreteFactory2_AbstractProductA"><path codeline="48" d="M420.58,228.56 C386.36,246.56 346.27,267.65 313.35,284.96 " fill="none" id="ConcreteFactory2-to-AbstractProductA" style="stroke:#181818;stroke-width:1.0;"></path><polygon fill="#181818" points="309.13,287.71,318.9575,287.0619,313.5555,285.383,315.2344,279.981,309.13,287.71" style="stroke:#181818;stroke-width:1.0;"></polygon></g><!--link ConcreteFactory2 to AbstractProductB--><g id="link_ConcreteFactory2_AbstractProductB"><path codeline="49" d="M486.61,228.38 C482.55,245.49 477.81,265.42 473.81,282.25 " fill="none" id="ConcreteFactory2-to-AbstractProductB" style="stroke:#181818;stroke-width:1.0;"></path><polygon fill="#181818" points="472.49,286.83,478.445,278.9854,473.6352,281.9629,470.6577,277.1531,472.49,286.83" style="stroke:#181818;stroke-width:1.0;"></polygon></g><!--SRC=[lPB12i8m38RlUOeU5TcWFOe8Y-3PLwXTXOAiqcM2gE_kc6uuC-nsq48lpVVdJyFl2hBXe8qLsRwae0rjw-l3HLn1r6SXJB2Qx2xul3AKpURBZcpVXa0S017k0EQeor9iV57ZP5zcygzkwbTkZYspRTCv-fCDcfml6hUpT_bN8N8XlWkV_sjTPCIcJwifDCefaw2Aq9zXMztIb8LY5AM0xRh1kfr4waoFlJhAI5q1otAIh7cEnb08BAbZUWrI-000]--></g></svg>